<?xml version="1.0" encoding="utf-8"?>
<!-- Generator: Adobe Illustrator 22.0.0, SVG Export Plug-In . SVG Version: 6.00 Build 0)  -->
<svg version="1.0" id="Layer_1" xmlns="http://www.w3.org/2000/svg" xmlns:xlink="http://www.w3.org/1999/xlink" x="0px" y="0px"
	 viewBox="0 0 102 35.4" style="enable-background:new 0 0 102 35.4;" xml:space="preserve">
<style type="text/css">
	.st0{fill:#68696C;}
	.st1{fill:#60C6EC;}
	.st2{fill:#00B2DF;}
	.st3{fill:#5BC5ED;}
	.st4{fill:#BAE2F5;}
</style>
<g>
	<path class="st0" d="M35.7,12h-0.7v-1.2h4.5c0.5,0,0.7,0.2,0.7,0.7v1.1H39v-0.5c0-0.1-0.1-0.2-0.2-0.2h-1.7v2h2.4v1.2h-2.4v1.8
		c0,0.1,0.1,0.2,0.2,0.2h1.7c0.1,0,0.2-0.1,0.2-0.2v-0.5h1.3v1.1c0,0.5-0.2,0.7-0.7,0.7h-3.4c-0.5,0-0.7-0.2-0.7-0.7V12z"/>
	<path class="st0" d="M41.2,17.1h0.5c0.1,0,0.2-0.1,0.2-0.2v-6.1h1.2l2.8,4.2c0.3,0.4,0.6,1.1,0.6,1.1h0c0,0-0.1-0.6-0.1-1.1v-3.4
		c0-0.5,0.2-0.7,0.7-0.7h1.4V12h-0.5c-0.1,0-0.2,0.1-0.2,0.2v6.1h-1.2l-2.9-4.1c-0.3-0.4-0.6-1.1-0.6-1.1h0c0,0,0.1,0.6,0.1,1.1v3.4
		c0,0.5-0.2,0.7-0.7,0.7h-1.4V17.1z"/>
	<path class="st0" d="M50,12h-0.7v-1.2h4.5c0.5,0,0.7,0.2,0.7,0.7v1.1h-1.3v-0.5c0-0.1-0.1-0.2-0.2-0.2h-1.7v2h2.4v1.2h-2.4v1.8
		c0,0.1,0.1,0.2,0.2,0.2h1.7c0.1,0,0.2-0.1,0.2-0.2v-0.5h1.3v1.1c0,0.5-0.2,0.7-0.7,0.7h-3.4c-0.5,0-0.7-0.2-0.7-0.7V12z"/>
	<path class="st0" d="M56.1,12h-0.7v-1.2h3.4c1.4,0,2.3,0.8,2.3,2.3c0,1.4-0.9,1.9-1.2,2v0c0,0,0.2,0.1,0.4,0.4l0.7,1.4
		c0.1,0.2,0.3,0.2,0.5,0.2h0.1v1.2h-0.7c-0.6,0-0.8-0.1-1-0.6l-1-1.9c-0.2-0.3-0.3-0.3-0.7-0.3h-0.7v2.8h-1.4V12z M58.6,14.3
		c0.7,0,1.1-0.4,1.1-1.2c0-0.7-0.4-1.2-1.1-1.2h-1.1v2.3H58.6z"/>
	<path class="st0" d="M65.8,10.7c1.8,0,2.7,1,2.7,1l-0.8,1c0,0-0.8-0.7-1.9-0.7c-1.3,0-2.4,1-2.4,2.5c0,1.6,1.1,2.6,2.5,2.6
		c1.2,0,1.9-0.8,1.9-0.8v-0.6c0-0.2-0.1-0.2-0.2-0.2h-0.5v-1.2h1.2c0.5,0,0.7,0.2,0.7,0.7v3.2h-1.2V18c0-0.2,0-0.3,0-0.3h0
		c0,0-0.8,0.8-2.2,0.8c-2,0-3.6-1.5-3.6-3.9C62,12.4,63.7,10.7,65.8,10.7z"/>
	<path class="st0" d="M72.1,15l-1.8-2.8C70.2,12,70.1,12,69.9,12h-0.2v-1.2h0.7c0.5,0,0.7,0.1,1,0.5l1,1.6c0.3,0.4,0.5,0.8,0.5,0.8
		h0c0,0,0.2-0.4,0.5-0.8l1-1.6c0.3-0.5,0.5-0.5,1-0.5h0.7V12h-0.2c-0.2,0-0.3,0-0.4,0.3L73.5,15v3.3h-1.4V15z"/>
	<g>
		<path class="st0" d="M78.5,11.9h-0.7v-1.2h3.1c2.3,0,3.8,1.4,3.8,3.7c0,2.4-1.5,3.8-3.8,3.8h-1.6c-0.5,0-0.7-0.2-0.7-0.7V11.9z
			 M80.1,17h0.7c1.5,0,2.5-0.9,2.5-2.6c0-1.7-1-2.6-2.5-2.6h-0.9v4.9C79.9,16.9,80,17,80.1,17z"/>
		<path class="st0" d="M85,17h0.2c0.2,0,0.3,0,0.3-0.2l2.2-6.1h1.4l2.2,6.1c0.1,0.2,0.1,0.2,0.3,0.2h0.2v1.2H91
			c-0.5,0-0.7-0.1-0.9-0.6l-0.5-1.3h-2.5l-0.5,1.3c-0.2,0.5-0.3,0.6-0.9,0.6H85V17z M89.4,15.1l-0.6-1.9c-0.1-0.4-0.3-1.1-0.3-1.1h0
			c0,0-0.2,0.7-0.3,1.1l-0.6,1.9H89.4z"/>
		<path class="st0" d="M92.4,17h0.8v-5.2h-0.8v-1.2h2.8v1.2h-0.8V17h0.8v1.2h-2.8V17z"/>
		<path class="st0" d="M96.7,16.2c0,0,0.8,0.9,1.8,0.9c0.6,0,1.1-0.3,1.1-0.9c0-1.3-3.5-1.2-3.5-3.5c0-1.2,1.1-2.1,2.5-2.1
			c0.9,0,2.2,0.4,2.2,1.5v0.7h-1.2v-0.3c0-0.3-0.5-0.6-1-0.6c-0.6,0-1.1,0.3-1.1,0.8c0,1.3,3.5,1,3.5,3.5c0,1.2-0.9,2.2-2.5,2.2
			c-1.7,0-2.6-1.2-2.6-1.2L96.7,16.2z"/>
	</g>
</g>
<g>
	<g>
		<path class="st0" d="M36.1,25.2c0,0,0.5,0.5,1.2,0.5c0.4,0,0.8-0.2,0.8-0.7c0-1-2.3-0.8-2.3-2.3c0-0.7,0.6-1.3,1.5-1.3
			c0.9,0,1.3,0.5,1.3,0.5l-0.3,0.5c0,0-0.4-0.4-1-0.4c-0.5,0-0.9,0.3-0.9,0.7c0,1,2.3,0.7,2.3,2.2c0,0.7-0.6,1.3-1.5,1.3
			c-1,0-1.6-0.6-1.6-0.6L36.1,25.2z"/>
		<path class="st0" d="M39.6,21.5h0.7v0.7h-0.7V21.5z M39.6,22.9h0.6v3.4h-0.6V22.9z"/>
		<path class="st0" d="M41.2,22.9h0.6v0.4c0,0.1,0,0.2,0,0.2h0c0.2-0.4,0.6-0.8,1.2-0.8c0.6,0,0.9,0.3,1,0.8h0
			c0.2-0.4,0.7-0.8,1.2-0.8c0.8,0,1.1,0.4,1.1,1.3v2.2h-0.6v-2c0-0.5-0.1-0.8-0.6-0.8c-0.5,0-0.8,0.4-1,0.9c0,0.1,0,0.3,0,0.5v1.5
			h-0.6v-2c0-0.4-0.1-0.8-0.6-0.8c-0.5,0-0.8,0.4-1,0.9c0,0.1,0,0.3,0,0.4v1.5h-0.6V22.9z"/>
		<path class="st0" d="M47.4,22.9H48v0.3c0,0.1,0,0.2,0,0.2h0c0,0,0.3-0.6,1.1-0.6c0.9,0,1.5,0.7,1.5,1.8c0,1.1-0.6,1.8-1.5,1.8
			c-0.7,0-1-0.6-1-0.6h0c0,0,0,0.1,0,0.3v1.5h-0.6V22.9z M48.9,25.8c0.5,0,1-0.4,1-1.2c0-0.7-0.4-1.2-1-1.2c-0.5,0-1,0.4-1,1.2
			C48,25.2,48.3,25.8,48.9,25.8z"/>
		<path class="st0" d="M51.3,21.5H52v3.7c0,0.4,0.2,0.5,0.4,0.5c0.1,0,0.1,0,0.1,0v0.6c0,0-0.1,0-0.2,0c-0.4,0-0.9-0.1-0.9-0.9V21.5
			z"/>
		<path class="st0" d="M53.1,21.5h0.7v0.7h-0.7V21.5z M53.1,22.9h0.6v3.4h-0.6V22.9z"/>
		<path class="st0" d="M55,23.5h-0.4v-0.5H55v-0.2c0-1.1,0.8-1.3,1.3-1.3c0.1,0,0.2,0,0.2,0v0.6c0,0-0.1,0-0.2,0
			c-0.2,0-0.7,0.1-0.7,0.7v0.1h0.8v0.5h-0.8v2.8H55V23.5z"/>
		<path class="st0" d="M56.9,27c0,0,0.2,0.1,0.4,0.1c0.3,0,0.5-0.2,0.6-0.5l0.2-0.4l-1.4-3.3h0.7l0.8,2.2c0.1,0.2,0.1,0.4,0.1,0.4h0
			c0,0,0.1-0.2,0.1-0.4l0.8-2.2H60l-1.6,4c-0.2,0.5-0.6,0.8-1.1,0.8c-0.4,0-0.7-0.2-0.7-0.2L56.9,27z"/>
		<path class="st0" d="M60.5,21.5h0.7v0.7h-0.7V21.5z M60.5,22.9h0.6v3.4h-0.6V22.9z"/>
		<path class="st0" d="M62.2,22.9h0.6v0.4c0,0.1,0,0.2,0,0.2h0c0.1-0.3,0.5-0.8,1.3-0.8c0.8,0,1.2,0.4,1.2,1.3v2.2h-0.6v-2
			c0-0.5-0.1-0.8-0.6-0.8c-0.5,0-0.9,0.3-1.1,0.8c0,0.1-0.1,0.3-0.1,0.5v1.6h-0.6V22.9z"/>
		<path class="st0" d="M67.5,27.1c0.6,0,1.1-0.3,1.1-1v-0.2c0-0.1,0-0.2,0-0.2h0c-0.2,0.3-0.5,0.5-1,0.5c-0.9,0-1.5-0.8-1.5-1.7
			c0-1,0.5-1.7,1.5-1.7c0.8,0,1.1,0.5,1.1,0.5h0c0,0,0,0,0-0.1v-0.3h0.6v3.2c0,1.1-0.8,1.5-1.7,1.5c-0.4,0-0.8-0.1-1.2-0.3l0.2-0.5
			C66.5,26.9,67,27.1,67.5,27.1z M68.6,24.5c0-0.9-0.4-1.1-1-1.1c-0.6,0-0.9,0.4-0.9,1.1c0,0.7,0.4,1.2,1,1.2
			C68.1,25.7,68.6,25.4,68.6,24.5z"/>
		<path class="st0" d="M72.1,21.5h2.7v0.6h-2.1v1.5h1.7v0.6h-1.7v1.5h2.2v0.6h-2.9V21.5z"/>
		<path class="st0" d="M75.8,22.9h0.6v0.4c0,0.1,0,0.2,0,0.2h0c0.1-0.3,0.5-0.8,1.3-0.8c0.8,0,1.2,0.4,1.2,1.3v2.2h-0.6v-2
			c0-0.5-0.1-0.8-0.6-0.8c-0.5,0-0.9,0.3-1.1,0.8c0,0.1-0.1,0.3-0.1,0.5v1.6h-0.6V22.9z"/>
		<path class="st0" d="M81.3,22.8c1,0,1.5,0.7,1.5,1.6c0,0.1,0,0.3,0,0.3h-2.5c0,0.7,0.6,1.1,1.2,1.1c0.6,0,1-0.4,1-0.4l0.3,0.5
			c0,0-0.5,0.5-1.3,0.5c-1.1,0-1.8-0.8-1.8-1.8C79.6,23.5,80.3,22.8,81.3,22.8z M82.1,24.2c0-0.6-0.4-0.9-0.8-0.9
			c-0.5,0-0.9,0.3-1,0.9H82.1z"/>
		<path class="st0" d="M83.5,22.9h0.6v0.6c0,0.1,0,0.3,0,0.3h0c0.2-0.5,0.5-0.9,1.1-0.9c0.1,0,0.2,0,0.2,0v0.6c0,0-0.1,0-0.2,0
			c-0.4,0-0.8,0.3-0.9,0.8c-0.1,0.2-0.1,0.4-0.1,0.6v1.4h-0.6V22.9z"/>
		<path class="st0" d="M87.2,27.1c0.6,0,1.1-0.3,1.1-1v-0.2c0-0.1,0-0.2,0-0.2h0c-0.2,0.3-0.5,0.5-1,0.5c-0.9,0-1.5-0.8-1.5-1.7
			c0-1,0.5-1.7,1.5-1.7c0.8,0,1.1,0.5,1.1,0.5h0c0,0,0,0,0-0.1v-0.3H89v3.2c0,1.1-0.8,1.5-1.7,1.5c-0.4,0-0.8-0.1-1.2-0.3l0.2-0.5
			C86.3,26.9,86.7,27.1,87.2,27.1z M88.3,24.5c0-0.9-0.4-1.1-1-1.1c-0.6,0-0.9,0.4-0.9,1.1c0,0.7,0.4,1.2,1,1.2
			C87.9,25.7,88.3,25.4,88.3,24.5z"/>
		<path class="st0" d="M89.7,27c0,0,0.2,0.1,0.4,0.1c0.3,0,0.5-0.2,0.6-0.5l0.2-0.4l-1.4-3.3h0.7l0.8,2.2c0.1,0.2,0.1,0.4,0.1,0.4h0
			c0,0,0.1-0.2,0.1-0.4l0.8-2.2h0.7l-1.6,4c-0.2,0.5-0.6,0.8-1.1,0.8c-0.4,0-0.7-0.2-0.7-0.2L89.7,27z"/>
	</g>
</g>
<g>
	<polygon class="st1" points="1.3,9.4 10.7,4.1 15.5,1.4 15.5,3.6 3.3,10.6 	"/>
	<polygon class="st2" points="23.1,7.9 25,6.8 15.5,1.4 15.5,3.6 	"/>
	<polygon class="st3" points="10.7,15 23.1,7.9 21,6.7 10.7,12.7 	"/>
	<polygon class="st1" points="3.3,10.6 5.3,9.4 10.7,12.7 10.7,15 	"/>
	<polygon class="st4" points="8.7,7.5 10.7,6.4 10.7,12.7 8.7,11.5 	"/>
	<polygon class="st4" points="15.5,3.6 15.5,9.9 17.5,8.8 17.5,4.8 	"/>
	<polygon class="st4" points="23.1,7.9 25,6.8 29.7,9.4 27.7,10.6 	"/>
	<polygon class="st4" points="17.5,11.1 22.2,13.7 20.3,14.9 15.5,12.2 	"/>
	<polygon class="st2" points="17.5,8.8 17.5,11.1 15.5,12.2 15.5,9.9 	"/>
	<polygon class="st2" points="10.7,12.7 10.7,15 8.7,13.8 8.7,11.5 	"/>
	<polygon class="st2" points="10.7,6.4 3.3,10.5 1.3,9.4 10.7,4.1 	"/>
	<polygon class="st2" points="20.3,14.9 22.3,16 24.2,14.8 22.2,13.7 	"/>
	<polygon class="st1" points="22.2,13.7 27.7,10.6 27.7,12.8 24.2,14.8 	"/>
	<polygon class="st2" points="29.7,9.4 27.7,10.6 27.7,19.1 29.7,20.2 	"/>
	<polygon class="st4" points="24.2,14.8 27.7,16.8 27.7,19.1 22.3,16 	"/>
	<polygon class="st3" points="27.7,19.1 27.7,24.7 29.7,25.9 29.7,20.2 	"/>
	<polygon class="st4" points="22.3,21.7 22.3,24 25.7,25.9 27.7,24.7 	"/>
	<polygon class="st2" points="29.7,25.9 27.7,24.7 20.3,29.1 20.3,31.4 	"/>
	<polygon class="st1" points="20.3,22.8 22.3,24 22.3,27.9 20.3,29.1 	"/>
	<polygon class="st2" points="20.3,20.5 22.3,21.7 22.3,24 20.3,22.8 	"/>
	<polygon class="st1" points="20.3,14.9 20.3,20.5 22.3,21.7 22.3,16 	"/>
	<polygon class="st4" points="15.5,23.3 20.3,20.5 20.3,22.8 15.5,25.6 	"/>
	<polygon class="st2" points="13.5,24.5 15.5,23.3 15.5,25.6 13.5,26.7 	"/>
	<polygon class="st3" points="13.5,30.7 13.5,26.7 15.5,25.6 15.5,31.8 	"/>
	<polygon class="st4" points="15.5,34.1 20.3,31.4 20.3,29.1 15.5,31.8 	"/>
	<polygon class="st4" points="8,27.6 13.5,24.5 13.5,26.7 10,28.7 	"/>
	<polygon class="st2" points="6,28.7 15.5,34.1 15.5,31.8 8,27.6 	"/>
	<polygon class="st1" points="1.3,26.1 3.3,24.9 8,27.6 6,28.7 	"/>
	<polygon class="st4" points="3.3,22.6 6.7,20.6 8.7,21.7 3.3,24.9 	"/>
	<polygon class="st1" points="8.5,21.6 10.5,20.5 15.5,23.3 13.5,24.5 	"/>
	<polygon class="st2" points="8.7,19.4 6.7,20.6 8.7,21.7 10.6,20.6 	"/>
	<polygon class="st1" points="3.3,16.3 3.3,18.5 6.7,20.6 8.7,19.4 	"/>
	<polygon class="st2" points="1.3,15.2 1.3,26.1 3.3,24.9 3.3,16.3 	"/>
	<polygon class="st4" points="8.7,13.8 8.7,19.4 10.6,20.6 10.7,15 	"/>
	<polygon class="st4" points="1.3,9.4 1.3,15.2 3.3,16.3 3.3,10.5 	"/>
</g>
</svg>
